<svg width="198" height="198" viewBox="0 0 198 198" fill="none" xmlns="http://www.w3.org/2000/svg">
<g clip-path="url(#clip0_40_4339)">
<path d="M168.79 32.4539C155.813 18.6479 132.44 34.1186 122.759 43.2189C122.626 29.9324 119.511 2.3353 100.565 2.52372C81.6188 2.71215 77.1566 30.3838 77.289 43.6702C67.8007 34.3687 44.7591 18.3609 31.4952 31.8913C18.2314 45.4216 34.6408 68.1408 44.1294 77.4421C30.8429 77.5742 3.2458 80.6892 3.43422 99.6356C3.62264 118.582 31.2964 123.045 44.5829 122.912C35.2813 132.401 17.9699 154.118 31.5002 167.381C45.0305 180.645 67.7526 164.233 77.0539 154.744C77.186 168.031 80.2967 195.625 99.243 195.436C118.189 195.248 122.652 167.577 122.52 154.291C132.008 163.592 153.725 180.904 166.989 167.373C180.253 153.843 163.84 131.121 154.351 121.82C167.638 121.688 195.235 118.572 195.047 99.6261C194.858 80.6798 167.186 76.2182 153.899 76.3507C163.581 67.2507 181.766 46.26 168.79 32.4539Z" fill="white" stroke="black" stroke-width="3"/>
<circle cx="98.877" cy="99.8625" r="45.5" fill="#FDCA01" stroke="black" stroke-width="3"/>
<circle cx="112.877" cy="90.8625" r="8" fill="black"/>
<circle cx="115.877" cy="87.8625" r="3" fill="white"/>
<circle cx="110.377" cy="95.3625" r="1.5" fill="white"/>
<circle cx="84.877" cy="90.8625" r="8" fill="black"/>
<circle cx="87.877" cy="87.8625" r="3" fill="white"/>
<circle cx="82.377" cy="95.3625" r="1.5" fill="white"/>
<path d="M76.877 111.863L79.8426 113.395C91.9388 119.647 106.315 119.647 118.411 113.395L121.377 111.863" stroke="black" stroke-width="3" stroke-linecap="round"/>
</g>
</svg>
